<?xml version="1.0" encoding="utf-8"?>
<!-- Generator: Adobe Illustrator 22.0.1, SVG Export Plug-In . SVG Version: 6.00 Build 0)  -->
<svg version="1.1" id="Capa_1" xmlns="http://www.w3.org/2000/svg" xmlns:xlink="http://www.w3.org/1999/xlink" x="0px" y="0px"
	 viewBox="0 0 485 118.9" style="enable-background:new 0 0 485 118.9;" xml:space="preserve">
<style type="text/css">
	.st0{fill:#FF9800;}
	.st1{fill:#FFFFFF;}
	.st2{fill:url(#SVGID_1_);}
	.st3{fill:#514F4E;stroke:#514F4E;stroke-width:2.3;stroke-miterlimit:10;}
	.st4{fill:#514F4E;stroke:#514F4E;stroke-width:1.8;stroke-miterlimit:10;}
	.st5{fill:url(#SVGID_2_);}
</style>
<path class="st0" d="M469.5,119.4h-454c-8.6,0-15.5-6.9-15.5-15.5v-88C0,7.3,6.9,0.4,15.5,0.4h454c8.6,0,15.5,6.9,15.5,15.5v88
	C485,112.5,478.1,119.4,469.5,119.4z"/>
<g>
	<g>
		<g>
			<path class="st1" d="M28.3,76.2C28.9,84.8,34.7,88,45.1,88c10.2,0,16-2.1,19.2-7.5C67.1,82,70,84.4,70,88
				c0,8-10.9,12.5-27.1,12.5c-23.7,0-33.3-8.4-33.3-29c0-20.6,9.1-29.4,31.7-29.4c24.5,0,31.2,10.1,31.2,26.3c0,2-0.4,6.1-0.8,7.9
				H28.3z M28.2,65.7h28.4C55.9,56.9,51.4,55,43.1,55S29.4,57,28.2,65.7z"/>
			<path class="st1" d="M140.9,99.3c-2.4,0.3-4.5,0.4-7.8,0.4c-8.9,0-10.8-4.3-10.8-7.2c-4.4,4.3-10.8,8-21.7,8
				c-10.9,0-23.9-6.3-23.9-28.4c0-22.2,12-29.1,23.6-29.1c12.5,0,20,8.5,22,10.9V29.5c0-5.2,2.1-8.9,9.1-8.9h9.4V99.3z M95.3,72.8
				c0,14.2,6.3,16.2,13.6,16.2s12.9-4.7,13.4-14.5v-3.7c0-8.4-6-14.7-13.4-14.7S95.3,58.6,95.3,72.8z"/>
			<path class="st1" d="M163.7,70.7c0,7.8,2.8,12.8,9.5,12.8c9.2,0,16.5-10.2,16.5-12.4V43.1h18.5v56.2H201
				c-7.2,0-11.2-1.2-11.2-8.5v-3.1c-6.2,7.5-12.8,12.7-23.7,12.7c-9.5,0-20.9-5.4-20.9-25.6V43.1h7.4c7.2,0,11.1,2.8,11.1,10.1V70.7
				z"/>
			<path class="st1" d="M255,30.8c0,5.1-3.4,8.9-4.7,9.4c0,0-0.9-7-7.8-7c-6.9,0-11.8,2.8-11.8,13.1v5.1h22.8v13.4h-22.8v34.4h-18.2
				V46.6c0-17.6,8.7-27.3,26.2-27.3C249.3,19.3,255,25.1,255,30.8z"/>
			<path class="st1" d="M321.2,99.3c-8.7,0.3-17.3,0-17.3-8c-3.1,4.7-10.8,9.2-21.7,9.2c-14.2,0-25.1-8.1-25.1-28.4
				c0-22.4,11.3-29.1,25.1-29.1c13.3,0,19.3,7,21.8,12.5c-1.8-9.5,3.4-12.6,8.5-12.5l8.7,0.1V99.3z M275.7,72.9
				c0,12.5,4.3,15.8,13.6,15.8c11.5,0,13.1-9,13.1-15.7v-1.1c0-9-3.7-14.3-13.1-14.3C280,57.6,275.7,61.5,275.7,72.9z"/>
			<path class="st1" d="M408.5,70.2c0-7.6-4.4-11.2-9.4-11.2c-6.7,0-11.3,6-13.6,12.2v28.1h-18.5V70.2c0-7.6-3.9-11.2-9.3-11.2
				c-7,0-11.8,6.2-13.7,12.2v28.1h-18.5V43.1h8.1c7.9,0,10.4,2.6,10.4,8.4v3.9c3.6-5.5,11-13.5,22-13.5c10.2,0,15.6,6,17.6,13
				c1.6-2.5,9.9-13,23.8-13c11.3,0,19.7,7.4,19.7,22.9v34.4h-7.8c-7.9,0-10.8-3.3-10.8-11.2V70.2z"/>
		</g>
	</g>
	<g>
		<g>
			<path class="st1" d="M461.8,83.5l-10.1,15.7l-10.1-15.7C441.7,83.5,451,87.4,461.8,83.5z"/>
		</g>
		<path class="st4" d="M447.9,91.7l3.9,6l3.9-6c0,0-2.3,0.5-3.9,0.5C450.3,92.2,447.9,91.7,447.9,91.7z"/>
		<g>
			<g>
				<linearGradient id="SVGID_1_" gradientUnits="userSpaceOnUse" x1="450.3185" y1="19.7459" x2="450.3185" y2="85.3264">
					<stop  offset="0" style="stop-color:#F1E785"/>
					<stop  offset="6.765448e-02" style="stop-color:#F6EC8E"/>
					<stop  offset="0.1997" style="stop-color:#FDF399"/>
					<stop  offset="0.3405" style="stop-color:#FFF59D"/>
					<stop  offset="0.6037" style="stop-color:#FFF9C4"/>
					<stop  offset="0.7593" style="stop-color:#FDEF55"/>
					<stop  offset="0.8876" style="stop-color:#FDF7B1"/>
					<stop  offset="1" style="stop-color:#FFFFFF"/>
				</linearGradient>
				<path class="st2" d="M462.5,82.9c7.4-10.4-15.4-9.8-20.4-7.2c-2.3,1.2-6,3.9-2.4,5.3c5.4,2.1,14.3,1.1,18.8-2.5
					c2.4-1.9,5.5-4.4,5-7.8c-1.3-7.4-15.2-5.9-20.1-5.4c-2.1,0.2-4.2,0.4-6,1.6c-0.6,0.4-3.2,2.3-3.3,3.1
					c-0.3,3.1,11.4,2.9,13.1,2.9c12.4-0.6,25.6-10.5,28.9-22.7c4.1-15-5.3-28.7-20.5-30.3c-11.1-1.1-21.1,3.6-28.1,12.2
					c-8.5,10.4-2.6,26.8,10.3,30c8.2,2.1,16,0.9,22.3-4.8c4.6-4.1,6.8-8.5,5-14.8c-2.2-7.6-11.4-9.9-17.5-5.2
					c-2.3,1.8-7.2,5.6-5.8,9.1c-0.2-0.4,3.7-2.6,3.5-3.2c-0.4-1-0.1-2,0.2-3c0.2-0.4,0.7-1.1,0.8-1.4c0.3-2.3-0.7,1.7-1.2,0.9
					c-0.2-0.4,4.2-1.5,4.5-1.6c5.4-0.6,10.1,1.8,11.8,7c0.7,2,0.9,4.3,0.7,6.4c-0.1,1-0.3,2-0.6,2.9c-0.5,1.4-1.3,2.3-1.3,2.3
					c-5,4-13.1,3.5-18.9,2c-8.7-2.2-15-11.1-14.4-20.1c0.8-11,11.2-15.7,21-15.9c8.8-0.2,18,3.1,22.5,11c5.9,10.3,3.5,26.5-7.4,32.4
					c-5.3,2.9-11.3,3.8-17.3,3.3c-1.9-0.2-3.9-0.4-5.7-1c-0.5-0.2-2.4-1.5-2.5-1.6c-0.4,0.4-0.8,0.8-1.2,1.1
					c-1.5,1.1-1.7,1.4-0.6,0.9c0.3,0.1,1-0.3,1.3-0.3c1.4-0.1,2.9-0.4,4.3-0.5c3.7-0.3,7.6-0.4,11.2,0.3c3.4,0.6,7.6,2.3,7.5,6.3
					c0,0.5-0.5,1.5-0.4,1.9c0,0.2-0.4,0.5-0.4,0.7c1.8-1.3,2.1-1.6,0.8-0.9c-0.4,0.2-0.8,0.4-1.2,0.6c-3.2,1.3-6.9,1.4-10.3,1.3
					c-2.5-0.1-4.8-1.2-7-1.4c-0.1,0-0.3-0.4-0.3-0.4c-0.1-0.6-0.5-0.3-1.1,0.9c-1.4,1-1.5,1.3-0.3,0.8c1.2,0.2,3.1-0.5,4.3-0.6
					c4.9-0.4,21.2-0.7,14.8,8.2C459.7,85.1,461.7,84.1,462.5,82.9L462.5,82.9z"/>
			</g>
		</g>
	</g>
</g>
</svg>
