<?xml version="1.0" encoding="utf-8"?>
<!-- Generator: Adobe Illustrator 22.0.1, SVG Export Plug-In . SVG Version: 6.00 Build 0)  -->
<svg version="1.1" id="Capa_1" xmlns="http://www.w3.org/2000/svg" xmlns:xlink="http://www.w3.org/1999/xlink" x="0px" y="0px"
	 viewBox="0 0 150 150" style="enable-background:new 0 0 150 150;" xml:space="preserve">
<style type="text/css">
	.st0{fill:#FF9800;}
	.st1{fill:#FFFFFF;}
	.st2{fill:url(#SVGID_1_);}
	.st3{fill:#514F4E;stroke:#514F4E;stroke-width:2.3;stroke-miterlimit:10;}
</style>
<path class="st0" d="M129.1,150H20.9C9.4,150,0,140.6,0,129.1V20.9C0,9.4,9.4,0,20.9,0h108.1C140.6,0,150,9.4,150,20.9v108.1
	C150,140.6,140.6,150,129.1,150z"/>
<g>
	<path class="st1" d="M91.9,115.2l-16.6,26l-16.6-26C58.6,115.2,73.9,121.6,91.9,115.2z"/>
</g>
<g>
	<g>
		<linearGradient id="SVGID_1_" gradientUnits="userSpaceOnUse" x1="72.8055" y1="10.3041" x2="72.8055" y2="117.5197">
			<stop  offset="0" style="stop-color:#F1E785"/>
			<stop  offset="6.765448e-02" style="stop-color:#F6EC8E"/>
			<stop  offset="0.1997" style="stop-color:#FDF399"/>
			<stop  offset="0.3405" style="stop-color:#FFF59D"/>
			<stop  offset="0.6037" style="stop-color:#FFF9C4"/>
			<stop  offset="0.7593" style="stop-color:#FDEF55"/>
			<stop  offset="0.8876" style="stop-color:#FDF7B1"/>
			<stop  offset="1" style="stop-color:#FFFFFF"/>
		</linearGradient>
		<path class="st2" d="M92.9,114.1c11.7-16.5-22.7-17.3-31.1-14.3c-2.5,0.9-5.8,3.5-7.3,5.7c-1.5,2.3,0.6,3.5,2.7,4.4
			c4.6,2,9.9,2,14.8,1.5c5.1-0.5,10.7-1.2,15-4.2c4.4-3,9.6-7.2,8.7-13c-2.1-13.9-24.7-11.1-34.2-9.7c-3.6,0.5-6.4,1.1-9.1,3.5
			c-1.5,1.3-4.8,3-3.2,4.9c1.8,2.1,8.2,2.1,10.6,2.3c5.3,0.4,10.6,0.2,15.8-1.1c19.6-5,40.5-23.8,41.2-44.9
			c0.8-22.1-15.2-37.7-36.6-39.4c-18.2-1.4-35.9,6.8-46.4,22c-10.6,15.4-3.2,39.2,14.3,46.1c11.6,4.5,26.8,4.5,37.1-3
			c6.3-4.6,12.4-10.3,12.9-18.5c0.7-11.9-5.9-21.4-18.3-21.5c-7.6,0-15,5.1-19.1,11.4c-1.2,1.9-2.6,4.9-1.6,7.2
			c-0.2-0.5,5.7-4,5.3-4.8c-0.7-1.4-0.3-3.1,0.2-4.5c0.5-1.3,1.3-2.2,1.9-3.5c1-2.2-1.5,1.9-2.2,1.8c0.7,0.1,2.7-1.5,3.6-1.8
			c7.2-2.6,16.8-0.9,21.3,5.7c3.6,5.3,4.7,13.1,3,19.3c-0.4,1.3-0.9,2.4-1.6,3.6c-0.5,0.8-1.1,1.4-1.6,2.2c1.6-2.3,1.4-1,0-0.2
			c-4.3,2.3-8.3,4-13.2,4.6c-15.5,2-30.8-3.6-38.1-17.8C30.2,43.8,34.3,26.4,49,19c22.3-11.2,54.9-2.5,61.2,23.5
			c2.1,8.5,1.6,17.3-1.9,25.3c-4,9.1-10.7,15.1-19.7,19c-7,3.1-14.3,4.3-22,3.9c-3-0.2-6.1-0.4-9.1-1.2c-1.4-0.4-2.7-1.7-3.8-2.1
			c-0.3-0.1-5.6,3.1-3.5,3.3c0.7,0.1,2-0.6,2.6-0.7c2.3-0.5,4.6-0.8,7-1c6-0.6,12.1-1,18,0.1c6.5,1.2,13.9,5.3,12.6,13
			c-0.2,0.9-1.3,2.5-1.3,3.2c0.1-3.7,4.5-2.6,1.4-1.7c-1.2,0.4-2.4,1-3.6,1.4c-4.8,1.5-10.2,2.1-15.2,2c-1.8,0-15.2-1.7-12.2-5.8
			c-0.2,0.3-0.5,0.5-0.7,0.8c-5.1,4.9-3.7,3.1-1,2.4c1.5-0.4,3.1-0.5,4.7-0.7c3.8-0.3,7.6-0.3,11.4,0c4.5,0.3,10.5,0.9,14,4.2
			c3.4,3.2,2.1,7.7-0.3,11.1C88.9,117,91.5,116,92.9,114.1L92.9,114.1z"/>
	</g>
</g>
<path class="st3" d="M68.2,128l7.1,11.1l7.1-11.1c0,0-4.1,0.8-7.1,0.9C72.5,128.9,68.2,128,68.2,128z"/>
</svg>
